{
  "accessors": [
    {
      "bufferView": 2,
      "componentType": 5126,
      "count": 249,
      "max": [
        0.300229012966156,
        -0.017509700730443,
        0.3176240026950836
      ],
      "min": [
        -0.1767680048942566,
        -0.31696799397468567,
        -0.15999799966812134
      ],
      "type": "VEC3"
    },
    {
      "bufferView": 2,
      "byteOffset": 2988,
      "componentType": 5126,
      "count": 249,
      "max": [
        0.9217420816421509,
        0.9867814183235168,
        0.9297872185707092
      ],
      "min": [
        -0.9307863712310791,
        0.2558785676956177,
        -0.9257332682609558
      ],
      "type": "VEC3"
    },
    {
      "bufferView": 1,
      "componentType": 5126,
      "count": 249,
      "max": [
        0.9768530130386353,
        0.9778860211372375
      ],
      "min": [
        0.02314699999988079,
        0.022113999351859093
      ],
      "type": "VEC2"
    },
    {
      "bufferView": 0,
      "componentType": 5125,
      "count": 1395,
      "type": "SCALAR"
    },
    {
      "bufferView": 2,
      "byteOffset": 5976,
      "componentType": 5126,
      "count": 499,
      "max": [
        0.18949399888515472,
        0.2966890037059784,
        0.019920600578188896
      ],
      "min": [
        0.11934799700975418,
        0.07624170184135437,
        -0.04955369979143143
      ],
      "type": "VEC3"
    },
    {
      "bufferView": 2,
      "byteOffset": 11964,
      "componentType": 5126,
      "count": 499,
      "max": [
        0.6992570757865906,
        0.8798359036445618,
        0.9998001456260681
      ],
      "min": [
        -0.999876081943512,
        -0.8801421523094177,
        -0.7241286039352417
      ],
      "type": "VEC3"
    },
    {
      "bufferView": 1,
      "byteOffset": 1992,
      "componentType": 5126,
      "count": 499,
      "max": [
        0.9846839904785156,
        0.991599977016449
      ],
      "min": [
        0.014148999936878681,
        0.008608009666204453
      ],
      "type": "VEC2"
    },
    {
      "bufferView": 0,
      "byteOffset": 5580,
      "componentType": 5125,
      "count": 2070,
      "type": "SCALAR"
    },
    {
      "bufferView": 2,
      "byteOffset": 17952,
      "componentType": 5126,
      "count": 3170,
      "max": [
        0.47717198729515076,
        0.5,
        0.24421299993991852
      ],
      "min": [
        -0.12583400309085846,
        -0.37336501479148865,
        -0.336667001247406
      ],
      "type": "VEC3"
    },
    {
      "bufferView": 2,
      "byteOffset": 55992,
      "componentType": 5126,
      "count": 3170,
      "max": [
        0.9999527931213379,
        0.985312283039093,
        0.9997671246528625
      ],
      "min": [
        -0.9999924302101135,
        -0.991272509098053,
        -0.9999532103538513
      ],
      "type": "VEC3"
    },
    {
      "bufferView": 1,
      "byteOffset": 5984,
      "componentType": 5126,
      "count": 3170,
      "max": [
        0.9950720071792603,
        0.99652498960495
      ],
      "min": [
        0.009184000082314014,
        0.005510000046342611
      ],
      "type": "VEC2"
    },
    {
      "bufferView": 0,
      "byteOffset": 13860,
      "componentType": 5125,
      "count": 11868,
      "type": "SCALAR"
    },
    {
      "bufferView": 2,
      "byteOffset": 94032,
      "componentType": 5126,
      "count": 973,
      "max": [
        0.4071179926395416,
        0.18319199979305267,
        0.42458999156951904
      ],
      "min": [
        -0.2840389907360077,
        -0.3853279948234558,
        -0.26658299565315247
      ],
      "type": "VEC3"
    },
    {
      "bufferView": 2,
      "byteOffset": 105708,
      "componentType": 5126,
      "count": 973,
      "max": [
        0.998421311378479,
        0.9999999403953552,
        0.998417854309082
      ],
      "min": [
        -0.998421311378479,
        0.018630625680088997,
        -0.998421311378479
      ],
      "type": "VEC3"
    },
    {
      "bufferView": 1,
      "byteOffset": 31344,
      "componentType": 5126,
      "count": 973,
      "max": [
        1.0007699728012085,
        0.9860479831695557
      ],
      "min": [
        0.005930989980697632,
        0.007428999990224838
      ],
      "type": "VEC2"
    },
    {
      "bufferView": 0,
      "byteOffset": 61332,
      "componentType": 5125,
      "count": 3528,
      "type": "SCALAR"
    },
    {
      "bufferView": 2,
      "byteOffset": 117384,
      "componentType": 5126,
      "count": 317,
      "max": [
        0.43598800897598267,
        0.18319199979305267,
        0.4534600079059601
      ],
      "min": [
        -0.31290900707244873,
        -0.49928298592567444,
        -0.2954379916191101
      ],
      "type": "VEC3"
    },
    {
      "bufferView": 2,
      "byteOffset": 121188,
      "componentType": 5126,
      "count": 317,
      "max": [
        0.9999998807907104,
        0.9999999403953552,
        0.9999998807907104
      ],
      "min": [
        -0.9999997019767761,
        -0.9999999403953552,
        -0.9999997019767761
      ],
      "type": "VEC3"
    },
    {
      "bufferView": 1,
      "byteOffset": 39128,
      "componentType": 5126,
      "count": 317,
      "max": [
        0.9930530190467834,
        0.9733189940452576
      ],
      "min": [
        0.012229000218212605,
        0.0069130100309848785
      ],
      "type": "VEC2"
    },
    {
      "bufferView": 0,
      "byteOffset": 75444,
      "componentType": 5125,
      "count": 855,
      "type": "SCALAR"
    },
    {
      "bufferView": 2,
      "byteOffset": 124992,
      "componentType": 5126,
      "count": 4,
      "max": [
        0.5,
        -0.5,
        0.5
      ],
      "min": [
        -0.5,
        -0.5,
        -0.5
      ],
      "type": "VEC3"
    },
    {
      "bufferView": 2,
      "byteOffset": 125040,
      "componentType": 5126,
      "count": 4,
      "max": [
        -1.5258823623298667e-05,
        0.9999999403953552,
        -1.5258823623298667e-05
      ],
      "min": [
        -1.5258823623298667e-05,
        0.9999999403953552,
        -1.5258823623298667e-05
      ],
      "type": "VEC3"
    },
    {
      "bufferView": 1,
      "byteOffset": 41664,
      "componentType": 5126,
      "count": 4,
      "max": [
        1.003999948501587,
        0.9949949979782104
      ],
      "min": [
        0.0039979200810194016,
        -0.005005060229450464
      ],
      "type": "VEC2"
    },
    {
      "bufferView": 0,
      "byteOffset": 78864,
      "componentType": 5125,
      "count": 6,
      "type": "SCALAR"
    }
  ],
  "asset": {
    "extras": {
      "author": "₵ⱤɎ₱₮Ø J₳₵₭ (https://sketchfab.com/oxyplik)",
      "license": "CC-BY-4.0 (http://creativecommons.org/licenses/by/4.0/)",
      "source": "https://sketchfab.com/3d-models/free-3d-model-ashtray-07d2e652b4c24579a383a547e655955f",
      "title": "Free 3D Model Ashtray"
    },
    "generator": "Sketchfab-15.66.0",
    "version": "2.0"
  },
  "bufferViews": [
    {
      "buffer": 0,
      "byteLength": 78888,
      "name": "floatBufferViews",
      "target": 34963
    },
    {
      "buffer": 0,
      "byteLength": 41696,
      "byteOffset": 78888,
      "byteStride": 8,
      "name": "floatBufferViews",
      "target": 34962
    },
    {
      "buffer": 0,
      "byteLength": 125088,
      "byteOffset": 120584,
      "byteStride": 12,
      "name": "floatBufferViews",
      "target": 34962
    }
  ],
  "buffers": [
    {
      "byteLength": 245672,
      "uri": "scene.bin"
    }
  ],
  "images": [
    {
      "uri": "textures/Material0-material_baseColor.png"
    },
    {
      "uri": "textures/Material1-material_baseColor.png"
    },
    {
      "uri": "textures/Material2-material_baseColor.png"
    },
    {
      "uri": "textures/Material3-material_baseColor.png"
    },
    {
      "uri": "textures/Material4-material_baseColor.png"
    },
    {
      "uri": "textures/Material5-material_baseColor.png"
    }
  ],
  "materials": [
    {
      "alphaMode": "BLEND",
      "doubleSided": true,
      "name": "Material0-material",
      "pbrMetallicRoughness": {
        "baseColorTexture": {
          "index": 0
        },
        "metallicFactor": 0.0,
        "roughnessFactor": 0.6
      }
    },
    {
      "doubleSided": true,
      "emissiveFactor": [
        1.0,
        1.0,
        1.0
      ],
      "emissiveTexture": {
        "index": 1
      },
      "name": "Material1-material",
      "pbrMetallicRoughness": {
        "baseColorTexture": {
          "index": 1
        },
        "metallicFactor": 0.0,
        "roughnessFactor": 0.6
      }
    },
    {
      "doubleSided": true,
      "name": "Material2-material",
      "pbrMetallicRoughness": {
        "baseColorTexture": {
          "index": 2
        },
        "metallicFactor": 0.0,
        "roughnessFactor": 0.6
      }
    },
    {
      "doubleSided": true,
      "name": "Material3-material",
      "pbrMetallicRoughness": {
        "baseColorTexture": {
          "index": 3
        },
        "metallicFactor": 0.0,
        "roughnessFactor": 0.6
      }
    },
    {
      "doubleSided": true,
      "name": "Material4-material",
      "pbrMetallicRoughness": {
        "baseColorTexture": {
          "index": 4
        },
        "metallicFactor": 0.0,
        "roughnessFactor": 0.6
      }
    },
    {
      "alphaMode": "BLEND",
      "doubleSided": true,
      "name": "Material5-material",
      "pbrMetallicRoughness": {
        "baseColorFactor": [
          1.0,
          1.0,
          1.0,
          0.0
        ],
        "baseColorTexture": {
          "index": 5
        },
        "metallicFactor": 0.0,
        "roughnessFactor": 0.6
      }
    }
  ],
  "meshes": [
    {
      "name": "Material0-material",
      "primitives": [
        {
          "attributes": {
            "NORMAL": 1,
            "POSITION": 0,
            "TEXCOORD_0": 2
          },
          "indices": 3,
          "material": 0,
          "mode": 4
        }
      ]
    },
    {
      "name": "Material1-material",
      "primitives": [
        {
          "attributes": {
            "NORMAL": 5,
            "POSITION": 4,
            "TEXCOORD_0": 6
          },
          "indices": 7,
          "material": 1,
          "mode": 4
        }
      ]
    },
    {
      "name": "Material2-material",
      "primitives": [
        {
          "attributes": {
            "NORMAL": 9,
            "POSITION": 8,
            "TEXCOORD_0": 10
          },
          "indices": 11,
          "material": 2,
          "mode": 4
        }
      ]
    },
    {
      "name": "Material3-material",
      "primitives": [
        {
          "attributes": {
            "NORMAL": 13,
            "POSITION": 12,
            "TEXCOORD_0": 14
          },
          "indices": 15,
          "material": 3,
          "mode": 4
        }
      ]
    },
    {
      "name": "Material4-material",
      "primitives": [
        {
          "attributes": {
            "NORMAL": 17,
            "POSITION": 16,
            "TEXCOORD_0": 18
          },
          "indices": 19,
          "material": 4,
          "mode": 4
        }
      ]
    },
    {
      "name": "Material5-material",
      "primitives": [
        {
          "attributes": {
            "NORMAL": 21,
            "POSITION": 20,
            "TEXCOORD_0": 22
          },
          "indices": 23,
          "material": 5,
          "mode": 4
        }
      ]
    }
  ],
  "nodes": [
    {
      "children": [
        1
      ],
      "matrix": [
        1.0,
        0.0,
        0.0,
        0.0,
        0.0,
        2.220446049250313e-16,
        -1.0,
        0.0,
        0.0,
        1.0,
        2.220446049250313e-16,
        0.0,
        0.0,
        0.0,
        0.0,
        1.0
      ],
      "name": "Sketchfab_model"
    },
    {
      "children": [
        2
      ],
      "name": "Collada visual scene group"
    },
    {
      "children": [
        3,
        4,
        5,
        6,
        7,
        8
      ],
      "matrix": [
        -5.49933e-05,
        -0.150168,
        -3.66577e-05,
        0.0,
        -1.66879e-09,
        -6.83538e-06,
        0.0279977,
        0.0,
        -0.150168,
        5.50022e-05,
        8.95073e-09,
        0.0,
        0.0,
        0.0,
        0.0,
        1.0
      ],
      "name": "prim1"
    },
    {
      "mesh": 0,
      "name": "Material0-material"
    },
    {
      "mesh": 1,
      "name": "Material1-material"
    },
    {
      "mesh": 2,
      "name": "Material2-material"
    },
    {
      "mesh": 3,
      "name": "Material3-material"
    },
    {
      "mesh": 4,
      "name": "Material4-material"
    },
    {
      "mesh": 5,
      "name": "Material5-material"
    }
  ],
  "samplers": [
    {
      "magFilter": 9729,
      "minFilter": 9987,
      "wrapS": 10497,
      "wrapT": 10497
    }
  ],
  "scene": 0,
  "scenes": [
    {
      "name": "Sketchfab_Scene",
      "nodes": [
        0
      ]
    }
  ],
  "textures": [
    {
      "sampler": 0,
      "source": 0
    },
    {
      "sampler": 0,
      "source": 1
    },
    {
      "sampler": 0,
      "source": 2
    },
    {
      "sampler": 0,
      "source": 3
    },
    {
      "sampler": 0,
      "source": 4
    },
    {
      "sampler": 0,
      "source": 5
    }
  ]
}
