{
  "accessors": [
    {
      "bufferView": 2,
      "componentType": 5126,
      "count": 29579,
      "max": [
        10.922004699707031,
        10.866031646728516,
        22.465538024902344
      ],
      "min": [
        -10.87339973449707,
        -13.327503204345703,
        0.1575632095336914
      ],
      "type": "VEC3"
    },
    {
      "bufferView": 2,
      "byteOffset": 354948,
      "componentType": 5126,
      "count": 29579,
      "max": [
        0.9999159574508667,
        0.999972403049469,
        1.0
      ],
      "min": [
        -0.9999918341636658,
        -0.9999907612800598,
        -1.0
      ],
      "type": "VEC3"
    },
    {
      "bufferView": 3,
      "componentType": 5126,
      "count": 29579,
      "max": [
        0.9999659061431885,
        0.9998655319213867,
        0.999961793422699,
        1.0
      ],
      "min": [
        -0.999906599521637,
        -0.9999394416809082,
        -0.9999580383300781,
        -1.0
      ],
      "type": "VEC4"
    },
    {
      "bufferView": 1,
      "componentType": 5126,
      "count": 29579,
      "max": [
        0.999500036239624,
        0.9676330089569092
      ],
      "min": [
        0.0005000000237487257,
        0.0005000000237487257
      ],
      "type": "VEC2"
    },
    {
      "bufferView": 0,
      "componentType": 5125,
      "count": 140952,
      "type": "SCALAR"
    }
  ],
  "asset": {
    "extras": {
      "author": "sheana (https://sketchfab.com/sheana)",
      "license": "CC-BY-4.0 (http://creativecommons.org/licenses/by/4.0/)",
      "source": "https://sketchfab.com/3d-models/cookies-in-the-jar-372cc5bca9e54c579d8399a18e686b24",
      "title": "Cookies in the jar"
    },
    "generator": "Sketchfab-14.64.0",
    "version": "2.0"
  },
  "bufferViews": [
    {
      "buffer": 0,
      "byteLength": 563808,
      "name": "floatBufferViews",
      "target": 34963
    },
    {
      "buffer": 0,
      "byteLength": 236632,
      "byteOffset": 563808,
      "byteStride": 8,
      "name": "floatBufferViews",
      "target": 34962
    },
    {
      "buffer": 0,
      "byteLength": 709896,
      "byteOffset": 800440,
      "byteStride": 12,
      "name": "floatBufferViews",
      "target": 34962
    },
    {
      "buffer": 0,
      "byteLength": 473264,
      "byteOffset": 1510336,
      "byteStride": 16,
      "name": "floatBufferViews",
      "target": 34962
    }
  ],
  "buffers": [
    {
      "byteLength": 1983600,
      "uri": "scene.bin"
    }
  ],
  "images": [
    {
      "uri": "textures/cookie_baseColor.png"
    },
    {
      "uri": "textures/cookie_metallicRoughness.png"
    },
    {
      "uri": "textures/cookie_normal.png"
    }
  ],
  "materials": [
    {
      "alphaMode": "BLEND",
      "name": "cookie",
      "normalTexture": {
        "index": 2
      },
      "pbrMetallicRoughness": {
        "baseColorTexture": {
          "index": 0
        },
        "metallicRoughnessTexture": {
          "index": 1
        }
      }
    }
  ],
  "meshes": [
    {
      "name": "cookies_cookie_0",
      "primitives": [
        {
          "attributes": {
            "NORMAL": 1,
            "POSITION": 0,
            "TANGENT": 2,
            "TEXCOORD_0": 3
          },
          "indices": 4,
          "material": 0,
          "mode": 4
        }
      ]
    }
  ],
  "nodes": [
    {
      "children": [
        1
      ],
      "matrix": [
        1.0,
        0.0,
        0.0,
        0.0,
        0.0,
        2.220446049250313e-16,
        -1.0,
        0.0,
        0.0,
        1.0,
        2.220446049250313e-16,
        0.0,
        0.0,
        0.0,
        0.0,
        1.0
      ],
      "name": "Sketchfab_model"
    },
    {
      "children": [
        2
      ],
      "matrix": [
        0.009999999776482582,
        0.0,
        0.0,
        0.0,
        0.0,
        0.0,
        0.009999999776482582,
        0.0,
        0.0,
        -0.009999999776482582,
        0.0,
        0.0,
        0.0,
        0.0,
        0.0,
        1.0
      ],
      "name": "cookies.fbx"
    },
    {
      "children": [
        3
      ],
      "name": "RootNode"
    },
    {
      "children": [
        4
      ],
      "matrix": [
        1.0,
        0.0,
        0.0,
        0.0,
        0.0,
        2.220446049250313e-16,
        -1.0,
        0.0,
        0.0,
        1.0,
        2.220446049250313e-16,
        0.0,
        0.0,
        0.0,
        0.0,
        1.0
      ],
      "name": "cookies"
    },
    {
      "mesh": 0,
      "name": "cookies_cookie_0"
    }
  ],
  "samplers": [
    {
      "magFilter": 9729,
      "minFilter": 9987,
      "wrapS": 10497,
      "wrapT": 10497
    }
  ],
  "scene": 0,
  "scenes": [
    {
      "name": "Sketchfab_Scene",
      "nodes": [
        0
      ]
    }
  ],
  "textures": [
    {
      "sampler": 0,
      "source": 0
    },
    {
      "sampler": 0,
      "source": 1
    },
    {
      "sampler": 0,
      "source": 2
    }
  ]
}
